<svg xmlns="http://www.w3.org/2000/svg" viewBox="0 0 400 400"><title>homepage-howto1</title><path d="M148,174.29h-8.57v-8.57a8.57,8.57,0,1,0-17.14,0v8.57h-8.56a8.57,8.57,0,1,0,0,17.14h8.56V200a8.57,8.57,0,1,0,17.14,0v-8.57H148a8.57,8.57,0,1,0,0-17.14Z" style="fill:#fff"/><path d="M277.7,162.87a8.57,8.57,0,1,1-8.57-8.57A8.57,8.57,0,0,1,277.7,162.87Z" style="fill:#fff"/><path d="M277.7,202.86a8.57,8.57,0,1,1-8.57-8.57A8.57,8.57,0,0,1,277.7,202.86Z" style="fill:#fff"/><path d="M257.7,182.86a8.57,8.57,0,1,1-8.57-8.57A8.57,8.57,0,0,1,257.7,182.86Z" style="fill:#fff"/><path d="M297.69,182.86a8.57,8.57,0,1,1-8.57-8.57A8.57,8.57,0,0,1,297.69,182.86Z" style="fill:#fff"/><path d="M208.57,174.29H191.43a8.57,8.57,0,0,0,0,17.14h17.14a8.57,8.57,0,0,0,0-17.14Z" style="fill:#fff"/><path d="M346.21,273.49l-8.85-97.27a68.56,68.56,0,0,0-59.66-61.38v-6.25a8.57,8.57,0,1,0-17.14,0v6.26a68.67,68.67,0,0,0-39.82,19.45H208.57V91.46a8.57,8.57,0,1,0-17.14,0V134.3H179.26a68.67,68.67,0,0,0-39.82-19.45v-6.26a8.57,8.57,0,1,0-17.14,0v6.25a68.55,68.55,0,0,0-59.66,61.42l-8.85,97.23a6.79,6.79,0,0,0,0,.78,42.85,42.85,0,0,0,77.41,25.32l0,0,35-48.46a25.33,25.33,0,0,0,4.11.34,25.74,25.74,0,0,0,25.06-20h9.3a25.74,25.74,0,0,0,25.06,20,25.33,25.33,0,0,0,4.11-.34l35,48.46,0,0a42.85,42.85,0,0,0,77.41-25.32A6.79,6.79,0,0,0,346.21,273.49ZM170.29,234.28a8.57,8.57,0,1,1,8.57-8.57A8.59,8.59,0,0,1,170.29,234.28Zm50.85-8.57a8.57,8.57,0,1,1,8.57,8.57A8.57,8.57,0,0,1,221.14,225.71ZM303.4,300a25.5,25.5,0,0,1-20.72-10.5l-33.74-46.74a25.7,25.7,0,1,0-42.25-28.46H193.31a25.7,25.7,0,1,0-42.25,28.46l-33.74,46.74a25.71,25.71,0,0,1-46.43-14.85l8.81-96.77a51.42,51.42,0,0,1,89.5-29.27,8.56,8.56,0,0,0,6.38,2.85h48.84a8.56,8.56,0,0,0,6.38-2.85,51.42,51.42,0,0,1,89.5,29.23l8.81,96.81A25.74,25.74,0,0,1,303.4,300Z" style="fill:#fff"/></svg>