<svg xmlns="http://www.w3.org/2000/svg" viewBox="0 0 400 400"><title>homepage-howto3</title><path d="M112.78,170a6.31,6.31,0,0,0-6.3-6.31A12.48,12.48,0,0,1,94,151.18a6.31,6.31,0,0,0-12.61,0,12.49,12.49,0,0,1-12.47,12.47,6.31,6.31,0,1,0,0,12.61A12.49,12.49,0,0,1,81.4,188.73a6.31,6.31,0,1,0,12.61,0,12.48,12.48,0,0,1,12.47-12.47A6.31,6.31,0,0,0,112.78,170Zm-22.91,0a24.57,24.57,0,0,0-2.17,2.16A24.46,24.46,0,0,0,85.54,170a24.57,24.57,0,0,0,2.16-2.17A24.69,24.69,0,0,0,89.87,170Z" style="fill:#fffdfd"/><path d="M194,81.36A6.93,6.93,0,0,1,201,88.28a6.31,6.31,0,1,0,12.61,0,6.94,6.94,0,0,1,6.92-6.92,6.31,6.31,0,1,0,0-12.61,6.93,6.93,0,0,1-6.92-6.92,6.31,6.31,0,0,0-12.61,0A6.92,6.92,0,0,1,194,68.75a6.31,6.31,0,0,0,0,12.61Z" style="fill:#fffdfd"/><path d="M226.21,256.69l40.44-32.88c5.05-4.11,10.08-8.23,15.15-12.31,2.94-2.37,5.81-2.37,7.59-.11s1.33,4.9-1.73,7.4q-29,23.61-58,47.16c-3.53,2.86-5.67,2.64-8.64-.82q-11.85-13.83-23.63-27.72c-2.73-3.22-2.94-5.92-.72-7.87s5-1.42,7.95,2C211.75,239.76,218.81,248,226.21,256.69Z" style="fill:#fff;stroke:#fffdfd;stroke-miterlimit:10;stroke-width:6px"/><path d="M242.83,342.5A103.69,103.69,0,1,1,346.51,238.82,103.8,103.8,0,0,1,242.83,342.5Zm0-198.35a94.67,94.67,0,1,0,94.67,94.67A94.78,94.78,0,0,0,242.83,144.15Z" style="fill:#fff;stroke:#fffdfd;stroke-miterlimit:10;stroke-width:6px"/><path d="M163.75,186.85,153.1,199,171,137.92h35.6l-16.21,18.5a6.25,6.25,0,0,0-1.54,4.58.38.38,0,0,0,0,.1,94.07,94.07,0,0,1,25.09-12.44l11.3-12.89a6.36,6.36,0,0,0,.53-7.62h0L198.65,86.81A6.3,6.3,0,0,0,193.38,84H85.05a6.31,6.31,0,0,0-5.27,2.84L52.66,128a6.69,6.69,0,0,0-.6,1,6.33,6.33,0,0,0,1,6.76l13.77,15.71a6.3,6.3,0,1,0,9.48-8.31l-4.6-5.25h35.61L125.22,199l-16.3-18.6a6.3,6.3,0,0,0-9.49,8.3l35,39.95a6.29,6.29,0,0,0,9.48,0l5.74-6.55A94,94,0,0,1,163.75,186.85Zm45.06-61.54H178l15.43-23.54ZM181.7,96.58l-15.43,23.53L150.84,96.58Zm-27.11,28.73H123.72l15.44-23.54Zm-85.07,0L85,101.75l15.45,23.56Zm27.2-28.73h30.76L112.1,120Zm42.44,105.16-18.69-63.82h37.38Z" style="fill:#fffdfd"/></svg>