<svg xmlns="http://www.w3.org/2000/svg" viewBox="0 0 400 400"><title>homepage-howto2</title><rect x="183.22" y="82.58" width="33.55" height="11.18" style="fill:#fff"/><rect x="144.08" y="267.1" width="11.18" height="11.18" style="fill:#fff"/><rect x="144.08" y="244.73" width="11.18" height="11.18" style="fill:#fff"/><rect x="166.45" y="267.1" width="11.18" height="11.18" style="fill:#fff"/><path d="M306.24,160.86c-7.72,0-19.37,2.66-28,10.7v-89A16.77,16.77,0,0,0,261.51,65.8h-123a16.77,16.77,0,0,0-16.77,16.78v67.1H104.94a16.77,16.77,0,0,0-16.77,16.77v11.18a16.71,16.71,0,0,0,4.27,11.19A16.66,16.66,0,0,0,88.17,200v11.18a16.71,16.71,0,0,0,4.27,11.19,16.66,16.66,0,0,0-4.27,11.18v11.18a16.71,16.71,0,0,0,4.27,11.19,16.66,16.66,0,0,0-4.27,11.18v11.18a16.77,16.77,0,0,0,16.77,16.78h16.78v22.36a16.77,16.77,0,0,0,16.77,16.78h123a16.77,16.77,0,0,0,16.77-16.78V196.14a25.65,25.65,0,0,1,22.37-23.51v156h11.18V166.45A5.59,5.59,0,0,0,306.24,160.86ZM138.49,77h123a5.6,5.6,0,0,1,5.59,5.6V99.35H132.9V82.58A5.6,5.6,0,0,1,138.49,77ZM99.35,244.73V233.55a5.59,5.59,0,0,1,5.59-5.59h16.78v22.36H104.94A5.59,5.59,0,0,1,99.35,244.73Zm0-33.55V200a5.59,5.59,0,0,1,5.59-5.59h16.78v22.36H104.94A5.59,5.59,0,0,1,99.35,211.18Zm0-44.73a5.59,5.59,0,0,1,5.59-5.59h16.78v22.37H104.94a5.6,5.6,0,0,1-5.59-5.6Zm5.59,117.42a5.59,5.59,0,0,1-5.59-5.59V267.1a5.59,5.59,0,0,1,5.59-5.59h16.78v22.36ZM261.51,323h-123a5.6,5.6,0,0,1-5.59-5.6V300.65H267.1v16.77A5.6,5.6,0,0,1,261.51,323Zm5.59-33.55H132.9V110.53H267.1Z" style="fill:#fff"/><path d="M200,144.08A55.92,55.92,0,1,0,255.92,200,55.92,55.92,0,0,0,200,144.08Zm0,100.65A44.73,44.73,0,1,1,244.73,200,44.72,44.72,0,0,1,200,244.73Z" style="fill:#fff"/><path d="M200,183.23a5.59,5.59,0,0,1,5.59,5.59h11.18A16.76,16.76,0,0,0,205.59,173v-6.55H194.41V173A16.77,16.77,0,0,0,200,205.59a5.6,5.6,0,1,1-5.59,5.59H183.22A16.77,16.77,0,0,0,194.41,227v6.55h11.18V227A16.78,16.78,0,0,0,200,194.41a5.59,5.59,0,0,1,0-11.18Z" style="fill:#fff"/><rect x="244.73" y="121.72" width="11.18" height="11.18" style="fill:#fff"/><rect x="244.73" y="144.08" width="11.18" height="11.18" style="fill:#fff"/><rect x="222.37" y="121.72" width="11.18" height="11.18" style="fill:#fff"/></svg>